<svg width="50" height="50" viewBox="0 0 50 50" fill="none" xmlns="http://www.w3.org/2000/svg">
<g clip-path="url(#clip0_1_1575)">
<path d="M50 25C50 29.9445 48.5337 34.778 45.7867 38.8893C43.0397 43.0005 39.1352 46.2048 34.5671 48.097C29.9989 49.9892 24.9722 50.4843 20.1227 49.5196C15.2732 48.555 10.8186 46.174 7.3223 42.6777C3.82598 39.1814 1.44496 34.7268 0.480333 29.8773C-0.484297 25.0277 0.0107862 20.0011 1.90298 15.4329C3.79517 10.8648 6.99948 6.9603 11.1107 4.21326C15.2219 1.46622 20.0554 0 25 0C31.6304 0 37.9892 2.63392 42.6776 7.32233C47.366 12.0107 50 18.3696 50 25Z" fill="#F7931A"/>
<path fill-rule="evenodd" clip-rule="evenodd" d="M17.7682 11.4159L23.5136 12.9546L24.7977 8.16821L27.6705 8.94776L26.4364 13.5364L28.7795 14.1659L30.0159 9.5273L32.9386 10.3091L31.6795 14.9728C31.6795 14.9728 36.4523 16.0296 37.575 19.9114C38.6977 23.7932 35.1068 25.8318 33.9977 25.9091C33.9977 25.9091 38.1795 28.2023 36.7432 32.7137C35.3068 37.225 30.8977 38.0318 26.2591 36.9978L25 41.8341L22.0773 41.0523L23.3614 36.2909L21.0432 35.6591L19.7591 40.4546L16.8591 39.675L18.1455 34.9023L12.2477 33.3114L13.7341 30.0114C13.7341 30.0114 15.3977 30.4659 16.0273 30.6159C16.6568 30.7659 17.0614 30.1114 17.2386 29.4568C17.4159 28.8023 20.0864 17.9546 20.3386 17.0614C20.5909 16.1682 20.4886 15.4705 19.4295 15.1955C18.3705 14.9205 16.9295 14.4909 16.9295 14.4909L17.7682 11.4159ZM23.5636 25.7818L21.9727 32.1068C21.9727 32.1068 29.8614 34.9546 30.8705 30.9478C31.8795 26.9409 23.5636 25.7818 23.5636 25.7818ZM24.2955 22.7818L25.8568 16.9864C25.8568 16.9864 32.6114 18.1955 31.7795 21.4205C30.9477 24.6455 26.9659 23.4091 24.2955 22.7818Z" fill="white"/>
</g>
<defs>
<clipPath id="clip0_1_1575">
<rect width="50" height="50" fill="white"/>
</clipPath>
</defs>
</svg>
