<svg width="865" height="254" viewBox="0 0 865 254" fill="none" xmlns="http://www.w3.org/2000/svg">
    <g opacity="0.24">
        <mask id="path-1-outside-1_1_1868" maskUnits="userSpaceOnUse" x="0" y="0" width="865" height="254" fill="black">
            <rect fill="white" width="865" height="254"/>
            <path d="M72.1 41C76.7 41 81.7 41.2 87.1 41.6C92.7 42 98.4 42.7 104.2 43.7C110.2 44.7 115.7 46.2 120.7 48.2L117.1 66.8C110.1 66.2 102.9 65.8 95.5 65.6C88.3 65.2 82.1 65 76.9 65C65.7 65 56.8 66.6 50.2 69.8C43.8 72.8 39.2 78.1 36.4 85.7C33.6 93.3 32.2 103.9 32.2 117.5C32.2 131.1 33.6 141.8 36.4 149.6C39.2 157.4 43.8 162.8 50.2 165.8C56.8 168.8 65.7 170.3 76.9 170.3C79.9 170.3 83.8 170.2 88.6 170C93.4 169.8 98.6 169.5 104.2 169.1C109.8 168.7 115.2 168.1 120.4 167.3L123.1 186.5C115.7 189.3 107.5 191.3 98.5 192.5C89.5 193.9 80.6 194.6 71.8 194.6C54.6 194.6 40.8 192.1 30.4 187.1C20.2 182.1 12.8 174 8.2 162.8C3.6 151.6 1.3 136.5 1.3 117.5C1.3 98.7 3.6 83.7 8.2 72.5C13 61.3 20.5 53.3 30.7 48.5C41.1 43.5 54.9 41 72.1 41ZM178.949 44.6L182.549 72.8L185.249 77V191H156.449V44.6H178.949ZM250.649 41L247.649 68H238.349C230.149 68 221.749 69.6 213.149 72.8C204.749 76 194.449 80.6 182.249 86.6L180.149 68.9C190.749 60.1 201.449 53.3 212.249 48.5C223.249 43.5 233.849 41 244.049 41H250.649ZM411.524 44.6L353.924 197.9C351.524 204.5 348.424 211 344.624 217.4C341.024 223.8 336.524 229.6 331.124 234.8C325.724 240.2 319.324 244.5 311.924 247.7C304.724 250.9 296.324 252.5 286.724 252.5L284.024 234.2C296.024 230.4 305.224 225.4 311.624 219.2C318.224 213 323.424 205.4 327.224 196.4L334.724 178.4C336.324 174.2 337.924 169.6 339.524 164.6C341.124 159.4 342.624 154.9 344.024 151.1L380.324 44.6H411.524ZM291.524 44.6L328.424 151.1C329.424 154.1 330.324 157.2 331.124 160.4C332.124 163.4 332.924 166.5 333.524 169.7H340.724L331.424 191H323.024C320.624 191 318.524 190.4 316.724 189.2C314.924 187.8 313.624 185.9 312.824 183.5L260.624 44.6H291.524ZM525.264 41C543.264 41 556.164 47.6 563.964 60.8C571.764 74 575.664 93.3 575.664 118.7C575.664 137.7 573.664 152.8 569.664 164C565.664 175 559.564 182.9 551.364 187.7C543.364 192.3 533.064 194.6 520.464 194.6C510.664 194.6 501.064 193.3 491.664 190.7C482.464 187.9 473.564 183.7 464.964 178.1L466.764 161.9C475.564 164.5 483.364 166.6 490.164 168.2C497.164 169.8 504.564 170.6 512.364 170.6C520.564 170.6 527.064 169.2 531.864 166.4C536.864 163.6 540.464 158.4 542.664 150.8C544.864 143.2 545.964 132.5 545.964 118.7C545.964 105.1 544.864 94.5 542.664 86.9C540.664 79.1 537.364 73.6 532.764 70.4C528.364 67 522.464 65.3 515.064 65.3C507.464 65.3 499.964 67.1 492.564 70.7C485.164 74.1 476.664 79.5 467.064 86.9L464.064 68.9C469.064 63.3 474.864 58.4 481.464 54.2C488.264 50 495.464 46.8 503.064 44.6C510.664 42.2 518.064 41 525.264 41ZM462.864 44.6L465.864 74.3L467.964 78.2V172.4L466.764 176C467.364 181.6 467.764 187.1 467.964 192.5C468.164 197.9 468.164 203.6 467.964 209.6V250.7H439.164V44.6H462.864ZM654.566 1.69999V149.3C654.566 156.1 655.966 161 658.766 164C661.766 166.8 666.766 168.2 673.766 168.2H695.366L698.666 189.5C695.266 190.5 691.366 191.3 686.966 191.9C682.766 192.5 678.466 192.9 674.066 193.1C669.866 193.5 666.466 193.7 663.866 193.7C651.466 193.7 641.966 190.3 635.366 183.5C628.766 176.7 625.466 166.9 625.466 154.1V1.69999H654.566ZM700.166 44.6V66.2H599.066V46.1L627.866 44.6H700.166ZM793.089 41C810.289 41 823.989 43.5 834.189 48.5C844.589 53.5 851.989 61.7 856.389 73.1C860.989 84.3 863.289 99.2 863.289 117.8C863.289 136.6 860.989 151.7 856.389 163.1C851.989 174.3 844.589 182.4 834.189 187.4C823.989 192.4 810.289 194.9 793.089 194.9C776.089 194.9 762.389 192.4 751.989 187.4C741.789 182.4 734.389 174.3 729.789 163.1C725.189 151.7 722.889 136.6 722.889 117.8C722.889 99.2 725.189 84.3 729.789 73.1C734.389 61.7 741.789 53.5 751.989 48.5C762.389 43.5 776.089 41 793.089 41ZM793.089 64.4C783.089 64.4 775.189 66 769.389 69.2C763.589 72.4 759.489 77.9 757.089 85.7C754.689 93.3 753.489 104 753.489 117.8C753.489 131.6 754.689 142.4 757.089 150.2C759.489 158 763.589 163.5 769.389 166.7C775.189 169.7 783.089 171.2 793.089 171.2C803.089 171.2 810.989 169.7 816.789 166.7C822.789 163.5 826.989 158 829.389 150.2C831.789 142.4 832.989 131.6 832.989 117.8C832.989 104 831.789 93.3 829.389 85.7C826.989 77.9 822.789 72.4 816.789 69.2C810.989 66 803.089 64.4 793.089 64.4Z"/>
        </mask>
        <path d="M87.1 41.6L87.0261 42.5973L87.0288 42.5975L87.1 41.6ZM104.2 43.7L104.03 44.6855L104.036 44.6864L104.2 43.7ZM120.7 48.2L121.682 48.39C121.773 47.919 121.517 47.4497 121.071 47.2715L120.7 48.2ZM117.1 66.8L117.015 67.7963C117.524 67.84 117.985 67.4921 118.082 66.99L117.1 66.8ZM95.5 65.6L95.4445 66.5985C95.454 66.599 95.4635 66.5994 95.473 66.5996L95.5 65.6ZM50.2 69.8L50.6245 70.7055L50.6363 70.6998L50.2 69.8ZM36.4 85.7L37.3383 86.0457L36.4 85.7ZM36.4 149.6L37.3412 149.262L36.4 149.6ZM50.2 165.8L49.7755 166.706L49.7862 166.71L50.2 165.8ZM88.6 170L88.6416 170.999L88.6 170ZM104.2 169.1L104.129 168.103L104.2 169.1ZM120.4 167.3L121.39 167.161C121.353 166.896 121.211 166.657 120.997 166.497C120.782 166.338 120.512 166.271 120.248 166.312L120.4 167.3ZM123.1 186.5L123.454 187.435C123.891 187.27 124.155 186.824 124.09 186.361L123.1 186.5ZM98.5 192.5L98.3678 191.509C98.3607 191.51 98.3535 191.511 98.3463 191.512L98.5 192.5ZM30.4 187.1L29.9598 187.998L29.9667 188.001L30.4 187.1ZM8.2 162.8L7.27498 163.18L8.2 162.8ZM8.2 72.5L7.28086 72.1061C7.27886 72.1107 7.2769 72.1154 7.27498 72.1201L8.2 72.5ZM30.7 48.5L31.1258 49.4048L31.1333 49.4012L30.7 48.5ZM72.1 41V42C76.6715 42 81.6465 42.1988 87.0261 42.5973L87.1 41.6L87.1739 40.6027C81.7535 40.2012 76.7285 40 72.1 40V41ZM87.1 41.6L87.0288 42.5975C92.5941 42.995 98.2612 43.6908 104.03 44.6855L104.2 43.7L104.37 42.7145C98.5388 41.7092 92.8059 41.005 87.1712 40.6025L87.1 41.6ZM104.2 43.7L104.036 44.6864C109.974 45.6761 115.403 47.1583 120.329 49.1285L120.7 48.2L121.071 47.2715C115.997 45.2417 110.426 43.7239 104.364 42.7136L104.2 43.7ZM120.7 48.2L119.718 48.01L116.118 66.61L117.1 66.8L118.082 66.99L121.682 48.39L120.7 48.2ZM117.1 66.8L117.185 65.8036C110.165 65.2019 102.945 64.8009 95.527 64.6004L95.5 65.6L95.473 66.5996C102.855 66.7991 110.035 67.1981 117.015 67.7963L117.1 66.8ZM95.5 65.6L95.5555 64.6015C88.3435 64.2009 82.124 64 76.9 64V65V66C82.076 66 88.2565 66.1991 95.4445 66.5985L95.5 65.6ZM76.9 65V64C65.6211 64 56.5525 65.6087 49.7637 68.9002L50.2 69.8L50.6363 70.6998C57.0475 67.5913 65.7789 66 76.9 66V65ZM50.2 69.8L49.7756 68.8945C43.1021 72.0227 38.3383 77.5464 35.4617 85.3543L36.4 85.7L37.3383 86.0457C40.0618 78.6536 44.4979 73.5773 50.6244 70.7055L50.2 69.8ZM36.4 85.7L35.4617 85.3543C32.6024 93.1151 31.2 103.851 31.2 117.5H32.2H33.2C33.2 103.949 34.5976 93.4849 37.3383 86.0457L36.4 85.7ZM32.2 117.5H31.2C31.2 131.151 32.6029 141.982 35.4588 149.938L36.4 149.6L37.3412 149.262C34.5971 141.618 33.2 131.049 33.2 117.5H32.2ZM36.4 149.6L35.4588 149.938C38.332 157.942 43.0933 163.573 49.7756 166.705L50.2 165.8L50.6244 164.895C44.5067 162.027 40.068 156.858 37.3412 149.262L36.4 149.6ZM50.2 165.8L49.7862 166.71C56.5675 169.793 65.6272 171.3 76.9 171.3V170.3V169.3C65.7728 169.3 57.0325 167.807 50.6138 164.89L50.2 165.8ZM76.9 170.3V171.3C79.9196 171.3 83.8349 171.199 88.6416 170.999L88.6 170L88.5584 169.001C83.7651 169.201 79.8804 169.3 76.9 169.3V170.3ZM88.6 170L88.6416 170.999C93.453 170.799 98.663 170.498 104.271 170.097L104.2 169.1L104.129 168.103C98.537 168.502 93.347 168.801 88.5584 169.001L88.6 170ZM104.2 169.1L104.271 170.097C109.897 169.696 115.324 169.093 120.552 168.288L120.4 167.3L120.248 166.312C115.076 167.107 109.703 167.704 104.129 168.103L104.2 169.1ZM120.4 167.3L119.41 167.439L122.11 186.639L123.1 186.5L124.09 186.361L121.39 167.161L120.4 167.3ZM123.1 186.5L122.746 185.565C115.427 188.334 107.303 190.317 98.3678 191.509L98.5 192.5L98.6322 193.491C107.697 192.283 115.973 190.266 123.454 187.435L123.1 186.5ZM98.5 192.5L98.3463 191.512C89.3954 192.904 80.5468 193.6 71.8 193.6V194.6V195.6C80.6532 195.6 89.6046 194.896 98.6537 193.488L98.5 192.5ZM71.8 194.6V193.6C54.6827 193.6 41.0483 191.11 30.8333 186.199L30.4 187.1L29.9667 188.001C40.5517 193.09 54.5173 195.6 71.8 195.6V194.6ZM30.4 187.1L30.8402 186.202C20.8749 181.317 13.6388 173.41 9.12502 162.42L8.2 162.8L7.27498 163.18C11.9612 174.59 19.5251 182.883 29.9598 187.998L30.4 187.1ZM8.2 162.8L9.12502 162.42C4.59459 151.389 2.3 136.436 2.3 117.5H1.3H0.300001C0.300001 136.564 2.60541 151.811 7.27498 163.18L8.2 162.8ZM1.3 117.5H2.3C2.3 98.766 4.59419 83.9115 9.12502 72.8799L8.2 72.5L7.27498 72.1201C2.60581 83.4885 0.300001 98.634 0.300001 117.5H1.3ZM8.2 72.5L9.11914 72.8939C13.8312 61.8991 21.1659 54.0918 31.1258 49.4048L30.7 48.5L30.2742 47.5952C19.8341 52.5082 12.1688 60.7009 7.28086 72.1061L8.2 72.5ZM30.7 48.5L31.1333 49.4012C41.3483 44.4902 54.9827 42 72.1 42V41V40C54.8174 40 40.8517 42.5098 30.2667 47.5987L30.7 48.5ZM178.949 44.6L179.941 44.4734C179.877 43.9741 179.453 43.6 178.949 43.6V44.6ZM182.549 72.8L181.557 72.9266C181.576 73.0742 181.628 73.2156 181.708 73.3408L182.549 72.8ZM185.249 77H186.249C186.249 76.8082 186.194 76.6205 186.09 76.4592L185.249 77ZM185.249 191V192C185.801 192 186.249 191.552 186.249 191H185.249ZM156.449 191H155.449C155.449 191.552 155.897 192 156.449 192V191ZM156.449 44.6V43.6C155.897 43.6 155.449 44.0477 155.449 44.6H156.449ZM250.649 41L251.643 41.1104C251.675 40.8277 251.584 40.545 251.394 40.3331C251.205 40.1211 250.934 40 250.649 40V41ZM247.649 68V69C248.159 69 248.587 68.6169 248.643 68.1104L247.649 68ZM213.149 72.8L212.8 71.8627L212.793 71.8655L213.149 72.8ZM182.249 86.6L181.256 86.7178C181.294 87.04 181.487 87.3237 181.772 87.4786C182.057 87.6336 182.399 87.6405 182.691 87.4973L182.249 86.6ZM180.149 68.9L179.51 68.1306C179.25 68.3472 179.116 68.6811 179.156 69.0178L180.149 68.9ZM212.249 48.5L212.655 49.4138L212.663 49.4104L212.249 48.5ZM178.949 44.6L177.957 44.7266L181.557 72.9266L182.549 72.8L183.541 72.6734L179.941 44.4734L178.949 44.6ZM182.549 72.8L181.708 73.3408L184.408 77.5407L185.249 77L186.09 76.4592L183.39 72.2592L182.549 72.8ZM185.249 77H184.249V191H185.249H186.249V77H185.249ZM185.249 191V190H156.449V191V192H185.249V191ZM156.449 191H157.449V44.6H156.449H155.449V191H156.449ZM156.449 44.6V45.6H178.949V44.6V43.6H156.449V44.6ZM250.649 41L249.655 40.8896L246.655 67.8896L247.649 68L248.643 68.1104L251.643 41.1104L250.649 41ZM247.649 68V67H238.349V68V69H247.649V68ZM238.349 68V67C230.017 67 221.499 68.6262 212.8 71.8628L213.149 72.8L213.498 73.7372C222 70.5738 230.282 69 238.349 69V68ZM213.149 72.8L212.793 71.8655C204.354 75.0806 194.023 79.6951 181.808 85.7026L182.249 86.6L182.691 87.4973C194.875 81.5049 205.145 76.9194 213.505 73.7345L213.149 72.8ZM182.249 86.6L183.242 86.4822L181.142 68.7822L180.149 68.9L179.156 69.0178L181.256 86.7178L182.249 86.6ZM180.149 68.9L180.788 69.6694C191.329 60.9185 201.952 54.171 212.655 49.4138L212.249 48.5L211.843 47.5862C200.947 52.429 190.17 59.2814 179.51 68.1306L180.149 68.9ZM212.249 48.5L212.663 49.4104C223.557 44.4587 234.016 42 244.049 42V41V40C233.683 40 222.942 42.5413 211.835 47.5896L212.249 48.5ZM244.049 41V42H250.649V41V40H244.049V41ZM411.524 44.6L412.46 44.9517C412.576 44.6446 412.533 44.3004 412.346 44.0307C412.16 43.7609 411.852 43.6 411.524 43.6V44.6ZM353.924 197.9L352.988 197.548L352.984 197.558L353.924 197.9ZM344.624 217.4L343.764 216.889C343.76 216.896 343.756 216.903 343.753 216.91L344.624 217.4ZM331.124 234.8L330.431 234.08C330.426 234.084 330.422 234.088 330.417 234.093L331.124 234.8ZM311.924 247.7L311.527 246.782L311.518 246.786L311.924 247.7ZM286.724 252.5L285.735 252.646C285.807 253.137 286.228 253.5 286.724 253.5V252.5ZM284.024 234.2L283.722 233.247C283.255 233.395 282.963 233.861 283.035 234.346L284.024 234.2ZM311.624 219.2L310.94 218.471C310.936 218.475 310.932 218.478 310.928 218.482L311.624 219.2ZM327.224 196.4L328.145 196.789L328.147 196.785L327.224 196.4ZM334.724 178.4L335.647 178.785C335.651 178.775 335.655 178.766 335.659 178.756L334.724 178.4ZM339.524 164.6L340.477 164.905L340.48 164.894L339.524 164.6ZM344.024 151.1L344.963 151.446C344.965 151.438 344.968 151.43 344.971 151.423L344.024 151.1ZM380.324 44.6V43.6C379.896 43.6 379.516 43.8723 379.378 44.2774L380.324 44.6ZM291.524 44.6L292.469 44.2726C292.33 43.87 291.95 43.6 291.524 43.6V44.6ZM328.424 151.1L329.373 150.784L329.369 150.773L328.424 151.1ZM331.124 160.4L330.154 160.643C330.16 160.667 330.167 160.692 330.176 160.716L331.124 160.4ZM333.524 169.7L332.541 169.884C332.63 170.357 333.043 170.7 333.524 170.7V169.7ZM340.724 169.7L341.641 170.1C341.776 169.791 341.746 169.435 341.561 169.152C341.376 168.87 341.062 168.7 340.724 168.7V169.7ZM331.424 191V192C331.822 192 332.182 191.764 332.341 191.4L331.424 191ZM316.724 189.2L316.11 189.989C316.13 190.004 316.149 190.019 316.17 190.032L316.724 189.2ZM312.824 183.5L313.773 183.184C313.769 183.172 313.765 183.16 313.76 183.148L312.824 183.5ZM260.624 44.6V43.6C260.296 43.6 259.989 43.7609 259.802 44.0307C259.615 44.3004 259.573 44.6446 259.688 44.9518L260.624 44.6ZM411.524 44.6L410.588 44.2483L352.988 197.548L353.924 197.9L354.86 198.252L412.46 44.9517L411.524 44.6ZM353.924 197.9L352.984 197.558C350.607 204.096 347.534 210.54 343.764 216.889L344.624 217.4L345.484 217.911C349.314 211.46 352.441 204.904 354.864 198.242L353.924 197.9ZM344.624 217.4L343.753 216.91C340.201 223.223 335.762 228.946 330.431 234.08L331.124 234.8L331.818 235.52C337.287 230.254 341.847 224.377 345.496 217.89L344.624 217.4ZM331.124 234.8L330.417 234.093C325.111 239.399 318.818 243.629 311.527 246.782L311.924 247.7L312.321 248.618C319.83 245.371 326.337 241.001 331.831 235.507L331.124 234.8ZM311.924 247.7L311.518 246.786C304.471 249.918 296.214 251.5 286.724 251.5V252.5V253.5C296.434 253.5 304.978 251.882 312.33 248.614L311.924 247.7ZM286.724 252.5L287.714 252.354L285.014 234.054L284.024 234.2L283.035 234.346L285.735 252.646L286.724 252.5ZM284.024 234.2L284.326 235.153C296.417 231.325 305.772 226.261 312.32 219.918L311.624 219.2L310.928 218.482C304.676 224.539 295.632 229.475 283.722 233.247L284.024 234.2ZM311.624 219.2L312.309 219.929C319.018 213.626 324.296 205.907 328.145 196.789L327.224 196.4L326.303 196.011C322.553 204.893 317.43 212.374 310.94 218.471L311.624 219.2ZM327.224 196.4L328.147 196.785L335.647 178.785L334.724 178.4L333.801 178.015L326.301 196.015L327.224 196.4ZM334.724 178.4L335.659 178.756C337.266 174.537 338.872 169.919 340.477 164.905L339.524 164.6L338.572 164.295C336.976 169.281 335.382 173.863 333.79 178.044L334.724 178.4ZM339.524 164.6L340.48 164.894C342.076 159.706 343.571 155.224 344.963 151.446L344.024 151.1L343.086 150.754C341.678 154.576 340.172 159.094 338.568 164.306L339.524 164.6ZM344.024 151.1L344.971 151.423L381.271 44.9226L380.324 44.6L379.378 44.2774L343.078 150.777L344.024 151.1ZM380.324 44.6V45.6H411.524V44.6V43.6H380.324V44.6ZM291.524 44.6L290.579 44.9274L327.479 151.427L328.424 151.1L329.369 150.773L292.469 44.2726L291.524 44.6ZM328.424 151.1L327.476 151.416C328.467 154.391 329.36 157.466 330.154 160.643L331.124 160.4L332.094 160.157C331.288 156.934 330.381 153.809 329.373 150.784L328.424 151.1ZM331.124 160.4L330.176 160.716C331.161 163.672 331.949 166.728 332.541 169.884L333.524 169.7L334.507 169.516C333.899 166.272 333.088 163.128 332.073 160.084L331.124 160.4ZM333.524 169.7V170.7H340.724V169.7V168.7H333.524V169.7ZM340.724 169.7L339.808 169.3L330.508 190.6L331.424 191L332.341 191.4L341.641 170.1L340.724 169.7ZM331.424 191V190H323.024V191V192H331.424V191ZM323.024 191V190C320.799 190 318.897 189.447 317.279 188.368L316.724 189.2L316.17 190.032C318.152 191.353 320.449 192 323.024 192V191ZM316.724 189.2L317.338 188.411C315.711 187.145 314.518 185.418 313.773 183.184L312.824 183.5L311.876 183.816C312.731 186.382 314.138 188.455 316.11 189.989L316.724 189.2ZM312.824 183.5L313.76 183.148L261.56 44.2482L260.624 44.6L259.688 44.9518L311.888 183.852L312.824 183.5ZM260.624 44.6V45.6H291.524V44.6V43.6H260.624V44.6ZM569.664 164L570.604 164.342L570.606 164.336L569.664 164ZM551.364 187.7L551.863 188.567L551.869 188.563L551.364 187.7ZM491.664 190.7L491.373 191.657C491.381 191.659 491.389 191.662 491.397 191.664L491.664 190.7ZM464.964 178.1L463.97 177.99C463.928 178.365 464.102 178.732 464.418 178.938L464.964 178.1ZM466.764 161.9L467.047 160.941C466.764 160.857 466.457 160.903 466.211 161.067C465.964 161.231 465.803 161.495 465.77 161.79L466.764 161.9ZM490.164 168.2L489.935 169.173L489.941 169.175L490.164 168.2ZM531.864 166.4L531.375 165.527C531.37 165.53 531.365 165.533 531.36 165.536L531.864 166.4ZM542.664 86.9L541.695 87.1484C541.698 87.1583 541.701 87.1682 541.703 87.1781L542.664 86.9ZM532.764 70.4L532.153 71.1913C532.166 71.2015 532.179 71.2114 532.193 71.2209L532.764 70.4ZM492.564 70.7L492.982 71.6087C492.988 71.6056 492.995 71.6024 493.002 71.5992L492.564 70.7ZM467.064 86.9L466.078 87.0644C466.135 87.4112 466.371 87.7021 466.698 87.8307C467.025 87.9593 467.396 87.9066 467.675 87.692L467.064 86.9ZM464.064 68.9L463.318 68.234C463.116 68.4601 463.028 68.7655 463.078 69.0644L464.064 68.9ZM481.464 54.2L480.939 53.3491L480.927 53.3563L481.464 54.2ZM503.064 44.6L503.342 45.5606C503.35 45.5583 503.358 45.556 503.365 45.5536L503.064 44.6ZM462.864 44.6L463.859 44.4995C463.807 43.9887 463.377 43.6 462.864 43.6V44.6ZM465.864 74.3L464.869 74.4005C464.882 74.5313 464.921 74.6583 464.984 74.7741L465.864 74.3ZM467.964 78.2H468.964C468.964 78.0345 468.923 77.8716 468.845 77.7259L467.964 78.2ZM467.964 172.4L468.913 172.716C468.947 172.614 468.964 172.507 468.964 172.4H467.964ZM466.764 176L465.815 175.684C465.77 175.82 465.754 175.964 465.77 176.107L466.764 176ZM467.964 192.5L466.965 192.537L467.964 192.5ZM467.964 209.6L466.965 209.567C466.964 209.578 466.964 209.589 466.964 209.6H467.964ZM467.964 250.7V251.7C468.516 251.7 468.964 251.252 468.964 250.7H467.964ZM439.164 250.7H438.164C438.164 251.252 438.612 251.7 439.164 251.7V250.7ZM439.164 44.6V43.6C438.612 43.6 438.164 44.0477 438.164 44.6H439.164ZM525.264 41V42C542.983 42 555.517 48.4711 563.103 61.3087L563.964 60.8L564.825 60.2913C556.811 46.7289 543.545 40 525.264 40V41ZM563.964 60.8L563.103 61.3087C570.771 74.2843 574.664 93.3743 574.664 118.7H575.664H576.664C576.664 93.2257 572.758 73.7157 564.825 60.2913L563.964 60.8ZM575.664 118.7H574.664C574.664 137.645 572.668 152.617 568.722 163.664L569.664 164L570.606 164.336C574.66 152.983 576.664 137.755 576.664 118.7H575.664ZM569.664 164L568.724 163.658C564.785 174.492 558.814 182.18 550.859 186.837L551.364 187.7L551.869 188.563C560.314 183.62 566.543 175.508 570.604 164.342L569.664 164ZM551.364 187.7L550.866 186.833C543.063 191.32 532.95 193.6 520.464 193.6V194.6V195.6C533.178 195.6 543.665 193.28 551.863 188.567L551.364 187.7ZM520.464 194.6V193.6C510.754 193.6 501.243 192.312 491.931 189.736L491.664 190.7L491.397 191.664C500.885 194.288 510.574 195.6 520.464 195.6V194.6ZM491.664 190.7L491.955 189.743C482.851 186.972 474.036 182.814 465.51 177.262L464.964 178.1L464.418 178.938C473.092 184.586 482.077 188.827 491.373 191.657L491.664 190.7ZM464.964 178.1L465.958 178.21L467.758 162.01L466.764 161.9L465.77 161.79L463.97 177.99L464.964 178.1ZM466.764 161.9L466.481 162.859C475.293 165.463 483.112 167.568 489.935 169.173L490.164 168.2L490.393 167.227C483.616 165.632 475.835 163.537 467.047 160.941L466.764 161.9ZM490.164 168.2L489.941 169.175C497.02 170.793 504.495 171.6 512.364 171.6V170.6V169.6C504.633 169.6 497.308 168.807 490.387 167.225L490.164 168.2ZM512.364 170.6V171.6C520.663 171.6 527.359 170.186 532.368 167.264L531.864 166.4L531.36 165.536C526.769 168.214 520.466 169.6 512.364 169.6V170.6ZM531.864 166.4L532.353 167.273C537.658 164.302 541.38 158.833 543.625 151.078L542.664 150.8L541.703 150.522C539.548 157.967 536.07 162.898 531.375 165.527L531.864 166.4ZM542.664 150.8L543.625 151.078C545.863 143.345 546.964 132.535 546.964 118.7H545.964H544.964C544.964 132.465 543.865 143.055 541.703 150.522L542.664 150.8ZM545.964 118.7H546.964C546.964 105.063 545.863 94.3544 543.625 86.6219L542.664 86.9L541.703 87.1781C543.865 94.6456 544.964 105.137 544.964 118.7H545.964ZM542.664 86.9L543.633 86.6516C541.599 78.7192 538.203 72.9653 533.335 69.5791L532.764 70.4L532.193 71.2209C536.525 74.2347 539.729 79.4808 541.695 87.1484L542.664 86.9ZM532.764 70.4L533.375 69.6087C528.75 66.0347 522.612 64.3 515.064 64.3V65.3V66.3C522.316 66.3 527.978 67.9653 532.153 71.1913L532.764 70.4ZM515.064 65.3V64.3C507.3 64.3 499.651 66.14 492.127 69.8008L492.564 70.7L493.002 71.5992C500.277 68.0599 507.628 66.3 515.064 66.3V65.3ZM492.564 70.7L492.147 69.7913C484.654 73.2341 476.087 78.682 466.454 86.108L467.064 86.9L467.675 87.692C477.241 80.318 485.675 74.9659 492.982 71.6087L492.564 70.7ZM467.064 86.9L468.05 86.7356L465.05 68.7356L464.064 68.9L463.078 69.0644L466.078 87.0644L467.064 86.9ZM464.064 68.9L464.81 69.566C469.746 64.0374 475.475 59.1964 482.001 55.0437L481.464 54.2L480.927 53.3563C474.253 57.6036 468.382 62.5626 463.318 68.234L464.064 68.9ZM481.464 54.2L481.99 55.0508C488.713 50.8979 495.83 47.7351 503.342 45.5606L503.064 44.6L502.786 43.6394C495.098 45.8649 487.815 49.1021 480.939 53.3492L481.464 54.2ZM503.064 44.6L503.365 45.5536C510.878 43.1811 518.177 42 525.264 42V41V40C517.952 40 510.45 41.2189 502.763 43.6464L503.064 44.6ZM462.864 44.6L461.869 44.7005L464.869 74.4005L465.864 74.3L466.859 74.1995L463.859 44.4995L462.864 44.6ZM465.864 74.3L464.984 74.7741L467.084 78.6741L467.964 78.2L468.845 77.7259L466.745 73.8259L465.864 74.3ZM467.964 78.2H466.964V172.4H467.964H468.964V78.2H467.964ZM467.964 172.4L467.015 172.084L465.815 175.684L466.764 176L467.713 176.316L468.913 172.716L467.964 172.4ZM466.764 176L465.77 176.107C466.367 181.684 466.766 187.161 466.965 192.537L467.964 192.5L468.963 192.463C468.762 187.039 468.361 181.516 467.758 175.893L466.764 176ZM467.964 192.5L466.965 192.537C467.164 197.911 467.164 203.588 466.965 209.567L467.964 209.6L468.964 209.633C469.164 203.612 469.164 197.889 468.963 192.463L467.964 192.5ZM467.964 209.6H466.964V250.7H467.964H468.964V209.6H467.964ZM467.964 250.7V249.7H439.164V250.7V251.7H467.964V250.7ZM439.164 250.7H440.164V44.6H439.164H438.164V250.7H439.164ZM439.164 44.6V45.6H462.864V44.6V43.6H439.164V44.6ZM654.566 1.69999H655.566C655.566 1.1477 655.119 0.699987 654.566 0.699987V1.69999ZM658.766 164L658.035 164.682C658.051 164.699 658.067 164.715 658.084 164.731L658.766 164ZM695.366 168.2L696.355 168.047C696.279 167.56 695.86 167.2 695.366 167.2V168.2ZM698.666 189.5L698.949 190.459C699.43 190.318 699.731 189.842 699.655 189.347L698.666 189.5ZM686.966 191.9L686.831 190.909L686.825 190.91L686.966 191.9ZM674.066 193.1L674.021 192.101C674.005 192.102 673.988 192.103 673.972 192.105L674.066 193.1ZM635.366 183.5L636.084 182.804L635.366 183.5ZM625.466 1.69999V0.699987C624.914 0.699987 624.466 1.1477 624.466 1.69999H625.466ZM700.166 44.6H701.166C701.166 44.0477 700.719 43.6 700.166 43.6V44.6ZM700.166 66.2V67.2C700.719 67.2 701.166 66.7523 701.166 66.2H700.166ZM599.066 66.2H598.066C598.066 66.7523 598.514 67.2 599.066 67.2V66.2ZM599.066 46.1L599.014 45.1013C598.483 45.129 598.066 45.5679 598.066 46.1H599.066ZM627.866 44.6V43.6C627.849 43.6 627.832 43.6004 627.814 43.6013L627.866 44.6ZM654.566 1.69999H653.566V149.3H654.566H655.566V1.69999H654.566ZM654.566 149.3H653.566C653.566 156.197 654.979 161.408 658.035 164.682L658.766 164L659.497 163.318C656.953 160.592 655.566 156.003 655.566 149.3H654.566ZM658.766 164L658.084 164.731C661.362 167.791 666.679 169.2 673.766 169.2V168.2V167.2C666.854 167.2 662.17 165.809 659.449 163.269L658.766 164ZM673.766 168.2V169.2H695.366V168.2V167.2H673.766V168.2ZM695.366 168.2L694.378 168.353L697.678 189.653L698.666 189.5L699.655 189.347L696.355 168.047L695.366 168.2ZM698.666 189.5L698.384 188.541C695.043 189.523 691.193 190.314 686.831 190.909L686.966 191.9L687.102 192.891C691.539 192.286 695.49 191.477 698.949 190.459L698.666 189.5ZM686.966 191.9L686.825 190.91C682.658 191.505 678.39 191.902 674.021 192.101L674.066 193.1L674.112 194.099C678.543 193.898 682.875 193.495 687.108 192.89L686.966 191.9ZM674.066 193.1L673.972 192.105C669.786 192.503 666.422 192.7 663.866 192.7V193.7V194.7C666.511 194.7 669.946 194.497 674.161 194.095L674.066 193.1ZM663.866 193.7V192.7C651.65 192.7 642.443 189.355 636.084 182.804L635.366 183.5L634.649 184.196C641.49 191.245 651.283 194.7 663.866 194.7V193.7ZM635.366 183.5L636.084 182.804C629.721 176.248 626.466 166.733 626.466 154.1H625.466H624.466C624.466 167.067 627.812 177.152 634.649 184.196L635.366 183.5ZM625.466 154.1H626.466V1.69999H625.466H624.466V154.1H625.466ZM625.466 1.69999V2.69999H654.566V1.69999V0.699987H625.466V1.69999ZM700.166 44.6H699.166V66.2H700.166H701.166V44.6H700.166ZM700.166 66.2V65.2H599.066V66.2V67.2H700.166V66.2ZM599.066 66.2H600.066V46.1H599.066H598.066V66.2H599.066ZM599.066 46.1L599.118 47.0986L627.918 45.5986L627.866 44.6L627.814 43.6013L599.014 45.1013L599.066 46.1ZM627.866 44.6V45.6H700.166V44.6V43.6H627.866V44.6ZM834.189 48.5L833.749 49.3979L833.756 49.4012L834.189 48.5ZM856.389 73.1L855.456 73.4601C855.459 73.4667 855.461 73.4733 855.464 73.4799L856.389 73.1ZM856.389 163.1L855.462 162.726L855.458 162.734L856.389 163.1ZM834.189 187.4L833.756 186.499L833.749 186.502L834.189 187.4ZM751.989 187.4L751.549 188.298L751.556 188.301L751.989 187.4ZM729.789 163.1L728.862 163.474L728.864 163.48L729.789 163.1ZM729.789 73.1L730.714 73.4799L730.716 73.4742L729.789 73.1ZM751.989 48.5L751.556 47.5987L751.549 47.6021L751.989 48.5ZM769.389 69.2L769.872 70.0756L769.389 69.2ZM757.089 85.7L758.043 86.0011L758.045 85.9941L757.089 85.7ZM769.389 166.7L768.906 167.576C768.914 167.58 768.922 167.584 768.93 167.588L769.389 166.7ZM816.789 166.7L817.249 167.588L817.26 167.582L816.789 166.7ZM829.389 150.2L828.433 149.906L829.389 150.2ZM829.389 85.7L828.433 85.9941L828.435 86.0011L829.389 85.7ZM816.789 69.2L816.306 70.0756C816.31 70.0779 816.314 70.0801 816.318 70.0823L816.789 69.2ZM793.089 41V42C810.208 42 823.738 44.4907 833.749 49.3979L834.189 48.5L834.629 47.6021C824.24 42.5093 810.37 40 793.089 40V41ZM834.189 48.5L833.756 49.4012C843.912 54.284 851.142 62.2821 855.456 73.4601L856.389 73.1L857.322 72.7399C852.836 61.1179 845.266 52.7159 834.622 47.5987L834.189 48.5ZM856.389 73.1L855.464 73.4799C859.995 84.5125 862.289 99.2677 862.289 117.8H863.289H864.289C864.289 99.1323 861.983 84.0875 857.314 72.7201L856.389 73.1ZM863.289 117.8H862.289C862.289 136.533 859.995 151.491 855.462 162.726L856.389 163.1L857.316 163.474C861.983 151.909 864.289 136.667 864.289 117.8H863.289ZM856.389 163.1L855.458 162.734C851.146 173.711 843.918 181.613 833.756 186.499L834.189 187.4L834.622 188.301C845.26 183.187 852.832 174.889 857.32 163.466L856.389 163.1ZM834.189 187.4L833.749 186.502C823.738 191.409 810.208 193.9 793.089 193.9V194.9V195.9C810.37 195.9 824.24 193.391 834.629 188.298L834.189 187.4ZM793.089 194.9V193.9C776.174 193.9 762.639 191.41 752.422 186.499L751.989 187.4L751.556 188.301C762.14 193.39 776.004 195.9 793.089 195.9V194.9ZM751.989 187.4L752.429 186.502C742.464 181.617 735.228 173.71 730.714 162.72L729.789 163.1L728.864 163.48C733.55 174.89 741.114 183.183 751.549 188.298L751.989 187.4ZM729.789 163.1L730.716 162.726C726.183 151.491 723.889 136.533 723.889 117.8H722.889H721.889C721.889 136.667 724.195 151.909 728.862 163.474L729.789 163.1ZM722.889 117.8H723.889C723.889 99.2677 726.183 84.5125 730.714 73.4799L729.789 73.1L728.864 72.7201C724.195 84.0875 721.889 99.1323 721.889 117.8H722.889ZM729.789 73.1L730.716 73.4742C735.232 62.2825 742.47 54.2801 752.429 49.3979L751.989 48.5L751.549 47.6021C741.109 52.7199 733.546 61.1175 728.862 72.7258L729.789 73.1ZM751.989 48.5L752.422 49.4012C762.639 44.4896 776.174 42 793.089 42V41V40C776.004 40 762.14 42.5104 751.556 47.5987L751.989 48.5ZM793.089 64.4V63.4C782.999 63.4 774.911 65.0116 768.906 68.3244L769.389 69.2L769.872 70.0756C775.468 66.9884 783.179 65.4 793.089 65.4V64.4ZM769.389 69.2L768.906 68.3244C762.829 71.6773 758.591 77.4188 756.133 85.4059L757.089 85.7L758.045 85.9941C760.387 78.3812 764.349 73.1227 769.872 70.0756L769.389 69.2ZM757.089 85.7L756.135 85.3989C753.69 93.1422 752.489 103.961 752.489 117.8H753.489H754.489C754.489 104.039 755.688 93.4577 758.043 86.0011L757.089 85.7ZM753.489 117.8H752.489C752.489 131.641 753.691 142.555 756.133 150.494L757.089 150.2L758.045 149.906C755.688 142.245 754.489 131.559 754.489 117.8H753.489ZM757.089 150.2L756.133 150.494C758.591 158.481 762.829 164.223 768.906 167.576L769.389 166.7L769.872 165.824C764.349 162.777 760.387 157.519 758.045 149.906L757.089 150.2ZM769.389 166.7L768.93 167.588C774.927 170.69 783.007 172.2 793.089 172.2V171.2V170.2C783.172 170.2 775.451 168.71 769.849 165.812L769.389 166.7ZM793.089 171.2V172.2C803.172 172.2 811.251 170.69 817.248 167.588L816.789 166.7L816.33 165.812C810.727 168.71 803.007 170.2 793.089 170.2V171.2ZM816.789 166.7L817.26 167.582C823.538 164.234 827.884 158.493 830.345 150.494L829.389 150.2L828.433 149.906C826.094 157.507 822.04 162.766 816.318 165.818L816.789 166.7ZM829.389 150.2L830.345 150.494C832.787 142.555 833.989 131.641 833.989 117.8H832.989H831.989C831.989 131.559 830.791 142.245 828.433 149.906L829.389 150.2ZM832.989 117.8H833.989C833.989 103.961 832.788 93.1422 830.343 85.3989L829.389 85.7L828.435 86.0011C830.79 93.4577 831.989 104.039 831.989 117.8H832.989ZM829.389 85.7L830.345 85.4059C827.884 77.4075 823.538 71.6662 817.26 68.3176L816.789 69.2L816.318 70.0823C822.04 73.1338 826.094 78.3925 828.433 85.9941L829.389 85.7ZM816.789 69.2L817.272 68.3244C811.268 65.0116 803.179 63.4 793.089 63.4V64.4V65.4C802.999 65.4 810.711 66.9884 816.306 70.0756L816.789 69.2Z" fill="url(#paint0_linear_1_1868)" fill-opacity="0.8" mask="url(#path-1-outside-1_1_1868)"/>
    </g>
    <defs>
        <linearGradient id="paint0_linear_1_1868" x1="-14" y1="87.5" x2="879" y2="87.5" gradientUnits="userSpaceOnUse">
            <stop stop-color="white" stop-opacity="0"/>
            <stop offset="0.501902" stop-color="white"/>
            <stop offset="1" stop-color="white" stop-opacity="0"/>
        </linearGradient>
    </defs>
</svg>
