<svg width="20" height="20" viewBox="0 0 20 20" fill="none" xmlns="http://www.w3.org/2000/svg">
<mask id="mask0_1_1459" style="mask-type:alpha" maskUnits="userSpaceOnUse" x="0" y="0" width="20" height="20">
<rect width="20" height="20" fill="#D9D9D9"/>
</mask>
<g mask="url(#mask0_1_1459)">
<path d="M3.33325 11.6667C3.33325 10.2083 3.68047 8.90972 4.37492 7.77083C5.06936 6.63194 5.83325 5.67361 6.66659 4.89583C7.49992 4.11806 8.26381 3.52431 8.95825 3.11458L9.99992 2.5V5.25C9.99992 5.76389 10.1735 6.17014 10.5208 6.46875C10.868 6.76736 11.2569 6.91667 11.6874 6.91667C11.9235 6.91667 12.1492 6.86806 12.3645 6.77083C12.5798 6.67361 12.7777 6.51389 12.9583 6.29167L13.3333 5.83333C14.3333 6.41667 15.1388 7.22569 15.7499 8.26042C16.361 9.29514 16.6666 10.4306 16.6666 11.6667C16.6666 12.8889 16.368 14.0035 15.7708 15.0104C15.1735 16.0174 14.3888 16.8125 13.4166 17.3958C13.6527 17.0625 13.8367 16.6979 13.9687 16.3021C14.1006 15.9062 14.1666 15.4861 14.1666 15.0417C14.1666 14.4861 14.0624 13.9618 13.8541 13.4688C13.6458 12.9757 13.3471 12.5347 12.9583 12.1458L9.99992 9.25L7.06242 12.1458C6.65964 12.5486 6.35409 12.9931 6.14575 13.4792C5.93742 13.9653 5.83325 14.4861 5.83325 15.0417C5.83325 15.4861 5.89922 15.9062 6.03117 16.3021C6.16311 16.6979 6.34714 17.0625 6.58325 17.3958C5.61103 16.8125 4.82631 16.0174 4.22909 15.0104C3.63186 14.0035 3.33325 12.8889 3.33325 11.6667ZM9.99992 11.5833L11.7708 13.3125C12.0069 13.5486 12.1874 13.8125 12.3124 14.1042C12.4374 14.3958 12.4999 14.7083 12.4999 15.0417C12.4999 15.7222 12.2569 16.3021 11.7708 16.7812C11.2846 17.2604 10.6944 17.5 9.99992 17.5C9.30547 17.5 8.7152 17.2604 8.22909 16.7812C7.74297 16.3021 7.49992 15.7222 7.49992 15.0417C7.49992 14.7222 7.56242 14.4132 7.68742 14.1146C7.81242 13.816 7.99297 13.5486 8.22909 13.3125L9.99992 11.5833Z" fill="#27EC98"/>
</g>
</svg>
