<svg xmlns="http://www.w3.org/2000/svg" width="239" height="60" viewBox="0 0 239 60" fill="none">
    <path d="M46.9826 18.0676C44.3432 13.4778 40.256 9.88558 35.3564 7.84933C30.4568 5.81308 25.0193 5.44691 19.8893 6.80773C14.7593 8.16856 10.2242 11.1801 6.98904 15.3743C3.7539 19.5684 2 24.7101 2 30C2 35.2899 3.7539 40.4316 6.98904 44.6257C10.2242 48.8199 14.7593 51.8314 19.8893 53.1923C25.0193 54.5531 30.4568 54.1869 35.3564 52.1507C40.256 50.1144 44.3432 46.5222 46.9826 41.9324" stroke="white" stroke-width="3"/>
    <path d="M20.9647 26.5728C22.0908 26.5728 22.0908 24.6694 20.9647 24.6694H17.9522V24.0113C17.9522 21.606 20.7746 20.8863 22.0623 22.0747C23.0031 22.8891 24.4429 21.4166 23.3452 20.4791C20.4278 18.2301 15.6619 19.982 15.6619 23.9829V24.6694H13.9989C12.7777 24.6694 12.7445 26.5728 13.9704 26.5728H15.6619V39.3235C15.6619 40.7013 17.9522 40.7013 17.9522 39.3235V26.5728H20.9647ZM28.3724 25.2328C28.3724 24.5416 27.902 24.1391 27.213 24.1391C26.4908 24.1391 26.0821 24.5416 26.0821 25.2328V33.514C26.0821 38.012 29.5651 40.5119 33.2048 40.5119C35.6471 40.5119 38.0656 39.5129 39.1918 37.2308V39.2004C39.1918 40.7013 41.4488 40.6682 41.4488 39.2288V25.2328C41.4488 24.5416 40.9784 24.1391 40.2609 24.1391C39.5386 24.1391 39.13 24.5416 39.13 25.2328V32.4818C39.13 35.8861 36.2743 38.386 33.2333 38.386C30.6959 38.386 28.3724 36.388 28.3724 33.514V25.2328ZM56.7964 24.3569C55.2569 23.9497 53.5653 23.9166 52.0923 24.3569C46.2574 25.9809 44.7844 33.1683 48.1723 37.6048C49.6452 39.4514 52.0923 40.3888 54.5394 40.3888C56.5778 40.4173 58.678 39.8538 60.1177 38.5139C61.3436 37.2639 59.7139 35.9808 58.6162 36.9798C57.3903 37.9173 55.8841 38.2913 54.4444 38.2913C51.3083 38.2913 49.1131 36.1702 48.7044 33.6039H61.0918C62.3795 33.6039 62.6931 32.8558 62.6266 32.1693V32.1977C62.5648 28.2015 60.3696 25.3228 56.8249 24.3569H56.7964ZM52.7813 26.4165C53.8457 26.104 55.1333 26.104 56.1692 26.3881H56.1359C58.583 27.0131 60.2128 29.0443 60.4313 31.7005H48.6094C48.7995 29.1674 50.2725 27.0747 52.7813 26.4165ZM71.6071 32.1693L66.1523 38.5423C65.0546 39.7307 66.7129 41.2316 67.8106 40.0101L73.1751 33.514L78.8817 40.0432C79.8843 41.1701 81.5806 39.7639 80.6066 38.6701L74.6813 32.1693L80.5448 25.6684C81.3621 24.5747 79.509 23.3579 78.6964 24.4516L73.1418 30.763L68.0006 24.4516C67.1548 23.4478 65.2399 24.48 66.2425 25.7915L71.6071 32.1693Z" fill="white"/>
</svg>