<svg width="50" height="50" viewBox="0 0 50 50" fill="none" xmlns="http://www.w3.org/2000/svg">
<g clip-path="url(#clip0_1_1620)">
<path d="M25 0C18.394 0.0192701 12.0657 2.65949 7.40475 7.34087C2.74381 12.0222 0.131306 18.3621 0.140941 24.9681C0.150577 31.5741 2.78156 37.9063 7.45614 42.574C12.1307 47.2418 18.4667 49.8635 25.0727 49.8635C31.6788 49.8635 38.0148 47.2418 42.6893 42.574C47.3639 37.9063 49.9949 31.5741 50.0045 24.9681C50.0142 18.3621 47.4017 12.0222 42.7407 7.34087C38.0798 2.65949 31.7515 0.0192701 25.1455 0L25 0Z" fill="#345D9D"/>
<path d="M25.4545 25.559L23.2523 32.9545H34.9705C35.0479 32.9506 35.1253 32.9629 35.1977 32.9908C35.2701 33.018 35.3364 33.0589 35.3932 33.1113C35.4495 33.165 35.495 33.2291 35.5273 33.2999C35.5614 33.3709 35.58 33.4484 35.5818 33.5272V33.7204L34.5614 37.2363C34.5177 37.403 34.4172 37.5493 34.2773 37.6499C34.1387 37.7516 33.9695 37.8029 33.7977 37.7954H15.8659L18.8705 27.5681L15.5091 28.5863L16.2727 26.2431L19.6341 25.2226L23.8636 10.8363C23.9094 10.6705 24.0105 10.5254 24.15 10.4249C24.288 10.3232 24.4559 10.2704 24.6273 10.2749H29.1727C29.2503 10.2729 29.3275 10.2861 29.4 10.3136C29.4733 10.3402 29.5405 10.3811 29.5977 10.434C29.6551 10.4869 29.7008 10.5511 29.7318 10.6226C29.7644 10.6941 29.7822 10.7714 29.7841 10.8499V11.0454L26.2182 23.1704L29.5818 22.1499L28.8636 24.5908L25.4545 25.559Z" fill="white"/>
</g>
<defs>
<clipPath id="clip0_1_1620">
<rect width="50" height="50" fill="white"/>
</clipPath>
</defs>
</svg>
