<svg width="20" height="20" viewBox="0 0 20 20" fill="none" xmlns="http://www.w3.org/2000/svg">
<mask id="mask0_1_1464" style="mask-type:alpha" maskUnits="userSpaceOnUse" x="0" y="0" width="20" height="20">
<rect width="20" height="20" fill="#D9D9D9"/>
</mask>
<g mask="url(#mask0_1_1464)">
<path d="M2.83341 15L1.66675 13.8333L6.08342 9.41667C6.56953 8.93056 7.1598 8.6875 7.85425 8.6875C8.54869 8.6875 9.13897 8.93056 9.62508 9.41667L10.5834 10.375C10.7501 10.5417 10.948 10.625 11.1772 10.625C11.4063 10.625 11.6042 10.5417 11.7709 10.375L15.4792 6.66667H13.3334V5H18.3334V10H16.6667V7.85417L12.9376 11.5625C12.4515 12.0486 11.8612 12.2917 11.1667 12.2917C10.4723 12.2917 9.88203 12.0486 9.39592 11.5625L8.41675 10.5833C8.26397 10.4306 8.06953 10.3542 7.83342 10.3542C7.5973 10.3542 7.40286 10.4306 7.25008 10.5833L2.83341 15Z" fill="#A9ACAC"/>
</g>
</svg>
