<svg width="20" height="20" viewBox="0 0 20 20" fill="none" xmlns="http://www.w3.org/2000/svg">
<mask id="mask0_1_605" style="mask-type:alpha" maskUnits="userSpaceOnUse" x="0" y="0" width="20" height="20">
<rect width="20" height="20" fill="#D9D9D9"/>
</mask>
<g mask="url(#mask0_1_605)">
<path d="M9.24996 15.8334H10.7083V14.7917C11.4027 14.6667 12 14.3959 12.5 13.9792C13 13.5626 13.25 12.9445 13.25 12.1251C13.25 11.5417 13.0833 11.007 12.75 10.5209C12.4166 10.0348 11.75 9.61119 10.75 9.25008C9.91663 8.9723 9.34024 8.72925 9.02079 8.52092C8.70135 8.31258 8.54163 8.02786 8.54163 7.66675C8.54163 7.30564 8.6701 7.02091 8.92704 6.81258C9.18399 6.60425 9.55551 6.50008 10.0416 6.50008C10.4861 6.50008 10.8333 6.60772 11.0833 6.823C11.3333 7.03828 11.5138 7.30564 11.625 7.62508L12.9583 7.08341C12.8055 6.5973 12.5243 6.17369 12.1145 5.81258C11.7048 5.45147 11.25 5.25008 10.75 5.20841V4.16675H9.29163V5.20841C8.59718 5.36119 8.05551 5.66675 7.66663 6.12508C7.27774 6.58341 7.08329 7.0973 7.08329 7.66675C7.08329 8.31953 7.27426 8.8473 7.65621 9.25008C8.03815 9.65286 8.63885 10.0001 9.45829 10.2917C10.3333 10.6112 10.9409 10.8959 11.2812 11.1459C11.6215 11.3959 11.7916 11.7223 11.7916 12.1251C11.7916 12.5834 11.6284 12.9202 11.302 13.1355C10.9757 13.3508 10.5833 13.4584 10.125 13.4584C9.66663 13.4584 9.26038 13.3161 8.90621 13.0313C8.55204 12.7466 8.29163 12.3195 8.12496 11.7501L6.74996 12.2917C6.9444 12.9584 7.24649 13.4966 7.65621 13.9063C8.06593 14.3161 8.59718 14.5973 9.24996 14.7501V15.8334ZM9.99996 18.3334C8.84718 18.3334 7.76385 18.1147 6.74996 17.6772C5.73607 17.2397 4.85413 16.6459 4.10413 15.8959C3.35413 15.1459 2.76038 14.264 2.32288 13.2501C1.88538 12.2362 1.66663 11.1529 1.66663 10.0001C1.66663 8.8473 1.88538 7.76397 2.32288 6.75008C2.76038 5.73619 3.35413 4.85425 4.10413 4.10425C4.85413 3.35425 5.73607 2.7605 6.74996 2.323C7.76385 1.8855 8.84718 1.66675 9.99996 1.66675C11.1527 1.66675 12.2361 1.8855 13.25 2.323C14.2638 2.7605 15.1458 3.35425 15.8958 4.10425C16.6458 4.85425 17.2395 5.73619 17.677 6.75008C18.1145 7.76397 18.3333 8.8473 18.3333 10.0001C18.3333 11.1529 18.1145 12.2362 17.677 13.2501C17.2395 14.264 16.6458 15.1459 15.8958 15.8959C15.1458 16.6459 14.2638 17.2397 13.25 17.6772C12.2361 18.1147 11.1527 18.3334 9.99996 18.3334Z" fill="#A9ACAC"/>
</g>
</svg>
