<svg width="50" height="50" viewBox="0 0 50 50" fill="none" xmlns="http://www.w3.org/2000/svg">
<g clip-path="url(#clip0_1_1588)">
<path d="M25 50C38.8071 50 50 38.8071 50 25C50 11.1929 38.8071 0 25 0C11.1929 0 0 11.1929 0 25C0 38.8071 11.1929 50 25 50Z" fill="#210066"/>
<path d="M17.3 29.7149C17.3679 29.6444 17.4495 29.5885 17.5397 29.5506C17.63 29.5128 17.7271 29.4938 17.825 29.4949H36.075C36.1258 29.4975 36.1756 29.5101 36.2215 29.532C36.2674 29.5539 36.3085 29.5847 36.3425 29.6226C36.3764 29.6605 36.4025 29.7047 36.4192 29.7527C36.436 29.8008 36.443 29.8516 36.44 29.9024C36.4359 29.9951 36.3996 30.0835 36.3375 30.1524L32.7325 33.7499C32.5932 33.8894 32.4046 33.9684 32.2075 33.9699H13.9575C13.8779 33.9764 13.7984 33.9572 13.7306 33.915C13.6628 33.8729 13.6103 33.8101 13.5809 33.7359C13.5515 33.6617 13.5468 33.58 13.5673 33.5028C13.5878 33.4257 13.6326 33.3572 13.695 33.3074L17.3 29.7149Z" fill="url(#paint0_linear_1_1588)"/>
<path d="M17.3 16.2501C17.4389 16.1097 17.6275 16.0297 17.825 16.0276H36.075C36.1484 16.0286 36.2199 16.0512 36.2806 16.0924C36.3413 16.1337 36.3885 16.1919 36.4165 16.2598C36.4444 16.3276 36.4518 16.4022 36.4378 16.4743C36.4238 16.5463 36.3889 16.6127 36.3375 16.6651L32.7325 20.2851C32.5932 20.4246 32.4046 20.5036 32.2075 20.5051H13.9575C13.8551 20.4993 13.7592 20.4531 13.6908 20.3767C13.6224 20.3004 13.587 20.2 13.5925 20.0976C13.5966 20.0049 13.6329 19.9165 13.695 19.8476L17.3 16.2501Z" fill="url(#paint1_linear_1_1588)"/>
<path d="M32.7325 22.94C32.6644 22.8696 32.5828 22.8136 32.4926 22.7754C32.4024 22.7372 32.3055 22.7175 32.2075 22.7175H13.9575C13.8551 22.7233 13.7592 22.7695 13.6908 22.8459C13.6224 22.9223 13.587 23.0226 13.5925 23.125C13.5962 23.2178 13.6325 23.3063 13.695 23.375L17.3 26.9625C17.3681 27.0329 17.4497 27.0889 17.5399 27.1272C17.6301 27.1654 17.727 27.1851 17.825 27.185H36.075C36.1484 27.184 36.2199 27.1614 36.2806 27.1202C36.3413 27.0789 36.3885 27.0207 36.4165 26.9528C36.4444 26.885 36.4518 26.8104 36.4378 26.7383C36.4238 26.6663 36.3889 26.5999 36.3375 26.5475L32.7325 22.94Z" fill="url(#paint2_linear_1_1588)"/>
</g>
<defs>
<linearGradient id="paint0_linear_1_1588" x1="34.325" y1="13.8749" x2="21.6875" y2="38.0749" gradientUnits="userSpaceOnUse">
<stop stop-color="#00FFA3"/>
<stop offset="1" stop-color="#DC1FFF"/>
</linearGradient>
<linearGradient id="paint1_linear_1_1588" x1="28.81" y1="10.9926" x2="16.185" y2="35.1951" gradientUnits="userSpaceOnUse">
<stop stop-color="#00FFA3"/>
<stop offset="1" stop-color="#DC1FFF"/>
</linearGradient>
<linearGradient id="paint2_linear_1_1588" x1="31.56" y1="12.43" x2="18.92" y2="36.63" gradientUnits="userSpaceOnUse">
<stop stop-color="#00FFA3"/>
<stop offset="1" stop-color="#DC1FFF"/>
</linearGradient>
<clipPath id="clip0_1_1588">
<rect width="50" height="50" fill="white"/>
</clipPath>
</defs>
</svg>
